<svg width="101" height="70" viewBox="0 0 101 70" fill="none" xmlns="http://www.w3.org/2000/svg">
<path d="M13.712 1.768V13H10.976V6.264L8.464 13H6.256L3.728 6.248V13H0.992V1.768H4.224L7.376 9.544L10.496 1.768H13.712ZM15.1355 8.52C15.1355 7.60267 15.3062 6.79733 15.6475 6.104C15.9995 5.41067 16.4742 4.87733 17.0715 4.504C17.6688 4.13067 18.3355 3.944 19.0715 3.944C19.7008 3.944 20.2502 4.072 20.7195 4.328C21.1995 4.584 21.5675 4.92 21.8235 5.336V4.072H24.5595V13H21.8235V11.736C21.5568 12.152 21.1835 12.488 20.7035 12.744C20.2342 13 19.6848 13.128 19.0555 13.128C18.3302 13.128 17.6688 12.9413 17.0715 12.568C16.4742 12.184 15.9995 11.6453 15.6475 10.952C15.3062 10.248 15.1355 9.43733 15.1355 8.52ZM21.8235 8.536C21.8235 7.85333 21.6315 7.31467 21.2475 6.92C20.8742 6.52533 20.4155 6.328 19.8715 6.328C19.3275 6.328 18.8635 6.52533 18.4795 6.92C18.1062 7.304 17.9195 7.83733 17.9195 8.52C17.9195 9.20267 18.1062 9.74667 18.4795 10.152C18.8635 10.5467 19.3275 10.744 19.8715 10.744C20.4155 10.744 20.8742 10.5467 21.2475 10.152C21.6315 9.75733 21.8235 9.21867 21.8235 8.536ZM35.3549 4.072V13H32.6189V11.784C32.3415 12.1787 31.9629 12.4987 31.4829 12.744C31.0135 12.9787 30.4909 13.096 29.9149 13.096C29.2322 13.096 28.6295 12.9467 28.1069 12.648C27.5842 12.3387 27.1789 11.896 26.8909 11.32C26.6029 10.744 26.4589 10.0667 26.4589 9.288V4.072H29.1789V8.92C29.1789 9.51733 29.3335 9.98133 29.6429 10.312C29.9522 10.6427 30.3682 10.808 30.8909 10.808C31.4242 10.808 31.8455 10.6427 32.1549 10.312C32.4642 9.98133 32.6189 9.51733 32.6189 8.92V4.072H35.3549ZM46.1668 13L43.4468 9.256V13H40.7108V1.16H43.4468V7.704L46.1508 4.072H49.5268L45.8148 8.552L49.5588 13H46.1668ZM59.0174 8.392C59.0174 8.648 59.0014 8.91467 58.9694 9.192H52.7774C52.82 9.74667 52.996 10.1733 53.3054 10.472C53.6254 10.76 54.0147 10.904 54.4734 10.904C55.156 10.904 55.6307 10.616 55.8974 10.04H58.8094C58.66 10.6267 58.388 11.1547 57.9934 11.624C57.6094 12.0933 57.124 12.4613 56.5374 12.728C55.9507 12.9947 55.2947 13.128 54.5694 13.128C53.6947 13.128 52.916 12.9413 52.2334 12.568C51.5507 12.1947 51.0174 11.6613 50.6334 10.968C50.2494 10.2747 50.0574 9.464 50.0574 8.536C50.0574 7.608 50.244 6.79733 50.6174 6.104C51.0014 5.41067 51.5347 4.87733 52.2174 4.504C52.9 4.13067 53.684 3.944 54.5694 3.944C55.4334 3.944 56.2014 4.12533 56.8734 4.488C57.5454 4.85067 58.068 5.368 58.4414 6.04C58.8254 6.712 59.0174 7.496 59.0174 8.392ZM56.2174 7.672C56.2174 7.20267 56.0574 6.82933 55.7374 6.552C55.4174 6.27467 55.0174 6.136 54.5374 6.136C54.0787 6.136 53.6894 6.26933 53.3694 6.536C53.06 6.80267 52.868 7.18133 52.7934 7.672H56.2174ZM63.1968 5.56C63.5168 5.06933 63.9168 4.68533 64.3968 4.408C64.8768 4.12 65.4101 3.976 65.9968 3.976V6.872H65.2448C64.5621 6.872 64.0501 7.02133 63.7088 7.32C63.3674 7.608 63.1968 8.12 63.1968 8.856V13H60.4608V4.072H63.1968V5.56ZM68.6645 3.144C68.1845 3.144 67.7898 3.00533 67.4805 2.728C67.1818 2.44 67.0325 2.088 67.0325 1.672C67.0325 1.24533 67.1818 0.893333 67.4805 0.615999C67.7898 0.327999 68.1845 0.183999 68.6645 0.183999C69.1338 0.183999 69.5178 0.327999 69.8165 0.615999C70.1258 0.893333 70.2805 1.24533 70.2805 1.672C70.2805 2.088 70.1258 2.44 69.8165 2.728C69.5178 3.00533 69.1338 3.144 68.6645 3.144ZM70.0405 14.152C70.0405 15.2507 69.7632 16.04 69.2085 16.52C68.6538 17.0107 67.8805 17.256 66.8885 17.256H65.8165V14.936H66.4725C66.7712 14.936 66.9845 14.8773 67.1125 14.76C67.2405 14.6427 67.3045 14.4507 67.3045 14.184V4.072H70.0405V14.152ZM71.4636 8.52C71.4636 7.60267 71.6343 6.79733 71.9756 6.104C72.3276 5.41067 72.8023 4.87733 73.3996 4.504C73.997 4.13067 74.6636 3.944 75.3996 3.944C76.029 3.944 76.5783 4.072 77.0476 4.328C77.5276 4.584 77.8956 4.92 78.1516 5.336V4.072H80.8876V13H78.1516V11.736C77.885 12.152 77.5116 12.488 77.0316 12.744C76.5623 13 76.013 13.128 75.3836 13.128C74.6583 13.128 73.997 12.9413 73.3996 12.568C72.8023 12.184 72.3276 11.6453 71.9756 10.952C71.6343 10.248 71.4636 9.43733 71.4636 8.52ZM78.1516 8.536C78.1516 7.85333 77.9596 7.31467 77.5756 6.92C77.2023 6.52533 76.7436 6.328 76.1996 6.328C75.6556 6.328 75.1916 6.52533 74.8076 6.92C74.4343 7.304 74.2476 7.83733 74.2476 8.52C74.2476 9.20267 74.4343 9.74667 74.8076 10.152C75.1916 10.5467 75.6556 10.744 76.1996 10.744C76.7436 10.744 77.2023 10.5467 77.5756 10.152C77.9596 9.75733 78.1516 9.21867 78.1516 8.536ZM84.243 3.144C83.763 3.144 83.3683 3.00533 83.059 2.728C82.7603 2.44 82.611 2.088 82.611 1.672C82.611 1.24533 82.7603 0.893333 83.059 0.615999C83.3683 0.327999 83.763 0.183999 84.243 0.183999C84.7123 0.183999 85.0963 0.327999 85.395 0.615999C85.7043 0.893333 85.859 1.24533 85.859 1.672C85.859 2.088 85.7043 2.44 85.395 2.728C85.0963 3.00533 84.7123 3.144 84.243 3.144ZM85.603 4.072V13H82.867V4.072H85.603ZM93.0258 3.976C94.0711 3.976 94.9031 4.31733 95.5218 5C96.1511 5.672 96.4658 6.6 96.4658 7.784V13H93.7458V8.152C93.7458 7.55467 93.5911 7.09067 93.2818 6.76C92.9724 6.42933 92.5564 6.264 92.0338 6.264C91.5111 6.264 91.0951 6.42933 90.7858 6.76C90.4764 7.09067 90.3218 7.55467 90.3218 8.152V13H87.5858V4.072H90.3218V5.256C90.5991 4.86133 90.9724 4.552 91.4418 4.328C91.9111 4.09333 92.4391 3.976 93.0258 3.976ZM3.728 27.16V39H0.992V27.16H3.728ZM5.16675 34.52C5.16675 33.6027 5.33742 32.7973 5.67875 32.104C6.03075 31.4107 6.50542 30.8773 7.10275 30.504C7.70008 30.1307 8.36675 29.944 9.10275 29.944C9.73208 29.944 10.2814 30.072 10.7508 30.328C11.2308 30.584 11.5988 30.92 11.8548 31.336V30.072H14.5908V39H11.8548V37.736C11.5881 38.152 11.2148 38.488 10.7348 38.744C10.2654 39 9.71608 39.128 9.08675 39.128C8.36142 39.128 7.70008 38.9413 7.10275 38.568C6.50542 38.184 6.03075 37.6453 5.67875 36.952C5.33742 36.248 5.16675 35.4373 5.16675 34.52ZM11.8548 34.536C11.8548 33.8533 11.6628 33.3147 11.2788 32.92C10.9054 32.5253 10.4468 32.328 9.90275 32.328C9.35875 32.328 8.89475 32.5253 8.51075 32.92C8.13742 33.304 7.95075 33.8373 7.95075 34.52C7.95075 35.2027 8.13742 35.7467 8.51075 36.152C8.89475 36.5467 9.35875 36.744 9.90275 36.744C10.4468 36.744 10.9054 36.5467 11.2788 36.152C11.6628 35.7573 11.8548 35.2187 11.8548 34.536ZM21.5461 36.68V39H20.1541C19.1621 39 18.3888 38.76 17.8341 38.28C17.2795 37.7893 17.0021 36.9947 17.0021 35.896V32.344H15.9141V30.072H17.0021V27.896H19.7381V30.072H21.5301V32.344H19.7381V35.928C19.7381 36.1947 19.8021 36.3867 19.9301 36.504C20.0581 36.6213 20.2715 36.68 20.5701 36.68H21.5461ZM24.4461 29.144C23.9661 29.144 23.5715 29.0053 23.2621 28.728C22.9635 28.44 22.8141 28.088 22.8141 27.672C22.8141 27.2453 22.9635 26.8933 23.2621 26.616C23.5715 26.328 23.9661 26.184 24.4461 26.184C24.9155 26.184 25.2995 26.328 25.5981 26.616C25.9075 26.8933 26.0621 27.2453 26.0621 27.672C26.0621 28.088 25.9075 28.44 25.5981 28.728C25.2995 29.0053 24.9155 29.144 24.4461 29.144ZM25.8061 30.072V39H23.0701V30.072H25.8061ZM33.2769 29.976C34.3009 29.976 35.1222 30.3173 35.7409 31C36.3595 31.672 36.6689 32.6 36.6689 33.784V39H33.9489V34.152C33.9489 33.5547 33.7942 33.0907 33.4849 32.76C33.1755 32.4293 32.7595 32.264 32.2369 32.264C31.7142 32.264 31.2982 32.4293 30.9889 32.76C30.6795 33.0907 30.5249 33.5547 30.5249 34.152V39H27.7889V27.16H30.5249V31.272C30.8022 30.8773 31.1809 30.5627 31.6609 30.328C32.1409 30.0933 32.6795 29.976 33.2769 29.976ZM38.0261 34.52C38.0261 33.6027 38.1968 32.7973 38.5381 32.104C38.8901 31.4107 39.3648 30.8773 39.9621 30.504C40.5595 30.1307 41.2261 29.944 41.9621 29.944C42.5915 29.944 43.1408 30.072 43.6101 30.328C44.0901 30.584 44.4581 30.92 44.7141 31.336V30.072H47.4501V39H44.7141V37.736C44.4475 38.152 44.0741 38.488 43.5941 38.744C43.1248 39 42.5755 39.128 41.9461 39.128C41.2208 39.128 40.5595 38.9413 39.9621 38.568C39.3648 38.184 38.8901 37.6453 38.5381 36.952C38.1968 36.248 38.0261 35.4373 38.0261 34.52ZM44.7141 34.536C44.7141 33.8533 44.5221 33.3147 44.1381 32.92C43.7648 32.5253 43.3061 32.328 42.7621 32.328C42.2181 32.328 41.7541 32.5253 41.3701 32.92C40.9968 33.304 40.8101 33.8373 40.8101 34.52C40.8101 35.2027 40.9968 35.7467 41.3701 36.152C41.7541 36.5467 42.2181 36.744 42.7621 36.744C43.3061 36.744 43.7648 36.5467 44.1381 36.152C44.5221 35.7573 44.7141 35.2187 44.7141 34.536ZM54.8695 29.976C55.9148 29.976 56.7468 30.3173 57.3655 31C57.9948 31.672 58.3095 32.6 58.3095 33.784V39H55.5895V34.152C55.5895 33.5547 55.4348 33.0907 55.1255 32.76C54.8162 32.4293 54.4002 32.264 53.8775 32.264C53.3548 32.264 52.9388 32.4293 52.6295 32.76C52.3202 33.0907 52.1655 33.5547 52.1655 34.152V39H49.4295V30.072H52.1655V31.256C52.4428 30.8613 52.8162 30.552 53.2855 30.328C53.7548 30.0933 54.2828 29.976 54.8695 29.976ZM67.2334 39.128C66.4547 39.128 65.7614 38.9947 65.1534 38.728C64.5454 38.4613 64.0654 38.0987 63.7134 37.64C63.3614 37.1707 63.164 36.648 63.1214 36.072H65.8254C65.8574 36.3813 66.0014 36.632 66.2574 36.824C66.5134 37.016 66.828 37.112 67.2014 37.112C67.5427 37.112 67.804 37.048 67.9854 36.92C68.1774 36.7813 68.2734 36.6053 68.2734 36.392C68.2734 36.136 68.14 35.9493 67.8734 35.832C67.6067 35.704 67.1747 35.5653 66.5774 35.416C65.9374 35.2667 65.404 35.112 64.9774 34.952C64.5507 34.7813 64.1827 34.52 63.8734 34.168C63.564 33.8053 63.4094 33.32 63.4094 32.712C63.4094 32.2 63.548 31.736 63.8254 31.32C64.1134 30.8933 64.5294 30.5573 65.0734 30.312C65.628 30.0667 66.284 29.944 67.0414 29.944C68.1614 29.944 69.0414 30.2213 69.6814 30.776C70.332 31.3307 70.7054 32.0667 70.8014 32.984H68.2734C68.2307 32.6747 68.092 32.4293 67.8574 32.248C67.6334 32.0667 67.3347 31.976 66.9614 31.976C66.6414 31.976 66.396 32.04 66.2254 32.168C66.0547 32.2853 65.9694 32.4507 65.9694 32.664C65.9694 32.92 66.1027 33.112 66.3694 33.24C66.6467 33.368 67.0734 33.496 67.6494 33.624C68.3107 33.7947 68.8494 33.9653 69.2654 34.136C69.6814 34.296 70.044 34.5627 70.3534 34.936C70.6734 35.2987 70.8387 35.7893 70.8494 36.408C70.8494 36.9307 70.7 37.4 70.4014 37.816C70.1134 38.2213 69.692 38.5413 69.1374 38.776C68.5934 39.0107 67.9587 39.128 67.2334 39.128ZM76.5873 39.128C75.7126 39.128 74.9233 38.9413 74.2193 38.568C73.5259 38.1947 72.9766 37.6613 72.5713 36.968C72.1766 36.2747 71.9793 35.464 71.9793 34.536C71.9793 33.6187 72.1819 32.8133 72.5872 32.12C72.9926 31.416 73.5473 30.8773 74.2513 30.504C74.9553 30.1307 75.7446 29.944 76.6193 29.944C77.4939 29.944 78.2833 30.1307 78.9873 30.504C79.6913 30.8773 80.2459 31.416 80.6513 32.12C81.0566 32.8133 81.2593 33.6187 81.2593 34.536C81.2593 35.4533 81.0513 36.264 80.6353 36.968C80.2299 37.6613 79.6699 38.1947 78.9553 38.568C78.2513 38.9413 77.4619 39.128 76.5873 39.128ZM76.5873 36.76C77.1099 36.76 77.5526 36.568 77.9153 36.184C78.2886 35.8 78.4753 35.2507 78.4753 34.536C78.4753 33.8213 78.2939 33.272 77.9313 32.888C77.5793 32.504 77.1419 32.312 76.6193 32.312C76.0859 32.312 75.6433 32.504 75.2913 32.888C74.9393 33.2613 74.7633 33.8107 74.7633 34.536C74.7633 35.2507 74.9339 35.8 75.2753 36.184C75.6273 36.568 76.0646 36.76 76.5873 36.76ZM82.1668 34.52C82.1668 33.6027 82.3374 32.7973 82.6788 32.104C83.0308 31.4107 83.5054 30.8773 84.1028 30.504C84.7001 30.1307 85.3668 29.944 86.1028 29.944C86.7321 29.944 87.2814 30.072 87.7508 30.328C88.2308 30.584 88.5988 30.92 88.8548 31.336V30.072H91.5908V39H88.8548V37.736C88.5881 38.152 88.2148 38.488 87.7348 38.744C87.2654 39 86.7161 39.128 86.0868 39.128C85.3614 39.128 84.7001 38.9413 84.1028 38.568C83.5054 38.184 83.0308 37.6453 82.6788 36.952C82.3374 36.248 82.1668 35.4373 82.1668 34.52ZM88.8548 34.536C88.8548 33.8533 88.6628 33.3147 88.2788 32.92C87.9054 32.5253 87.4468 32.328 86.9028 32.328C86.3588 32.328 85.8948 32.5253 85.5108 32.92C85.1374 33.304 84.9508 33.8373 84.9508 34.52C84.9508 35.2027 85.1374 35.7467 85.5108 36.152C85.8948 36.5467 86.3588 36.744 86.9028 36.744C87.4468 36.744 87.9054 36.5467 88.2788 36.152C88.6628 35.7573 88.8548 35.2187 88.8548 34.536ZM96.3061 27.16V39H93.5701V27.16H96.3061ZM0.448 60.52C0.448 59.6027 0.618667 58.7973 0.96 58.104C1.312 57.4107 1.78667 56.8773 2.384 56.504C2.98133 56.1307 3.648 55.944 4.384 55.944C5.01333 55.944 5.56267 56.072 6.032 56.328C6.512 56.584 6.88 56.92 7.136 57.336V56.072H9.872V65H7.136V63.736C6.86933 64.152 6.496 64.488 6.016 64.744C5.54667 65 4.99733 65.128 4.368 65.128C3.64267 65.128 2.98133 64.9413 2.384 64.568C1.78667 64.184 1.312 63.6453 0.96 62.952C0.618667 62.248 0.448 61.4373 0.448 60.52ZM7.136 60.536C7.136 59.8533 6.944 59.3147 6.56 58.92C6.18667 58.5253 5.728 58.328 5.184 58.328C4.64 58.328 4.176 58.5253 3.792 58.92C3.41867 59.304 3.232 59.8373 3.232 60.52C3.232 61.2027 3.41867 61.7467 3.792 62.152C4.176 62.5467 4.64 62.744 5.184 62.744C5.728 62.744 6.18667 62.5467 6.56 62.152C6.944 61.7573 7.136 61.2187 7.136 60.536ZM14.5874 57.336C14.854 56.92 15.222 56.584 15.6914 56.328C16.1607 56.072 16.71 55.944 17.3394 55.944C18.0754 55.944 18.742 56.1307 19.3394 56.504C19.9367 56.8773 20.406 57.4107 20.7474 58.104C21.0994 58.7973 21.2754 59.6027 21.2754 60.52C21.2754 61.4373 21.0994 62.248 20.7474 62.952C20.406 63.6453 19.9367 64.184 19.3394 64.568C18.742 64.9413 18.0754 65.128 17.3394 65.128C16.7207 65.128 16.1714 65 15.6914 64.744C15.222 64.488 14.854 64.1573 14.5874 63.752V69.256H11.8514V56.072H14.5874V57.336ZM18.4914 60.52C18.4914 59.8373 18.2994 59.304 17.9154 58.92C17.542 58.5253 17.078 58.328 16.5234 58.328C15.9794 58.328 15.5154 58.5253 15.1314 58.92C14.758 59.3147 14.5714 59.8533 14.5714 60.536C14.5714 61.2187 14.758 61.7573 15.1314 62.152C15.5154 62.5467 15.9794 62.744 16.5234 62.744C17.0674 62.744 17.5314 62.5467 17.9154 62.152C18.2994 61.7467 18.4914 61.2027 18.4914 60.52ZM22.1668 60.52C22.1668 59.6027 22.3374 58.7973 22.6788 58.104C23.0308 57.4107 23.5054 56.8773 24.1028 56.504C24.7001 56.1307 25.3668 55.944 26.1028 55.944C26.7321 55.944 27.2814 56.072 27.7508 56.328C28.2308 56.584 28.5988 56.92 28.8548 57.336V56.072H31.5908V65H28.8548V63.736C28.5881 64.152 28.2148 64.488 27.7348 64.744C27.2654 65 26.7161 65.128 26.0868 65.128C25.3614 65.128 24.7001 64.9413 24.1028 64.568C23.5054 64.184 23.0308 63.6453 22.6788 62.952C22.3374 62.248 22.1668 61.4373 22.1668 60.52ZM28.8548 60.536C28.8548 59.8533 28.6628 59.3147 28.2788 58.92C27.9054 58.5253 27.4468 58.328 26.9028 58.328C26.3588 58.328 25.8948 58.5253 25.5108 58.92C25.1374 59.304 24.9508 59.8373 24.9508 60.52C24.9508 61.2027 25.1374 61.7467 25.5108 62.152C25.8948 62.5467 26.3588 62.744 26.9028 62.744C27.4468 62.744 27.9054 62.5467 28.2788 62.152C28.6628 61.7573 28.8548 61.2187 28.8548 60.536ZM42.4488 55.976C43.4728 55.976 44.2941 56.3173 44.9128 57C45.5314 57.672 45.8408 58.6 45.8408 59.784V65H43.1208V60.152C43.1208 59.5547 42.9661 59.0907 42.6568 58.76C42.3474 58.4293 41.9314 58.264 41.4088 58.264C40.8861 58.264 40.4701 58.4293 40.1608 58.76C39.8514 59.0907 39.6968 59.5547 39.6968 60.152V65H36.9608V53.16H39.6968V57.272C39.9741 56.8773 40.3528 56.5627 40.8328 56.328C41.3128 56.0933 41.8514 55.976 42.4488 55.976ZM47.198 60.52C47.198 59.6027 47.3687 58.7973 47.71 58.104C48.062 57.4107 48.5367 56.8773 49.134 56.504C49.7313 56.1307 50.398 55.944 51.134 55.944C51.7633 55.944 52.3127 56.072 52.782 56.328C53.262 56.584 53.63 56.92 53.886 57.336V56.072H56.622V65H53.886V63.736C53.6193 64.152 53.246 64.488 52.766 64.744C52.2967 65 51.7473 65.128 51.118 65.128C50.3927 65.128 49.7313 64.9413 49.134 64.568C48.5367 64.184 48.062 63.6453 47.71 62.952C47.3687 62.248 47.198 61.4373 47.198 60.52ZM53.886 60.536C53.886 59.8533 53.694 59.3147 53.31 58.92C52.9367 58.5253 52.478 58.328 51.934 58.328C51.39 58.328 50.926 58.5253 50.542 58.92C50.1687 59.304 49.982 59.8373 49.982 60.52C49.982 61.2027 50.1687 61.7467 50.542 62.152C50.926 62.5467 51.39 62.744 51.934 62.744C52.478 62.744 52.9367 62.5467 53.31 62.152C53.694 61.7573 53.886 61.2187 53.886 60.536ZM61.3374 57.56C61.6574 57.0693 62.0574 56.6853 62.5374 56.408C63.0174 56.12 63.5507 55.976 64.1374 55.976V58.872H63.3854C62.7027 58.872 62.1907 59.0213 61.8494 59.32C61.508 59.608 61.3374 60.12 61.3374 60.856V65H58.6014V56.072H61.3374V57.56ZM66.8211 55.144C66.3411 55.144 65.9465 55.0053 65.6371 54.728C65.3385 54.44 65.1891 54.088 65.1891 53.672C65.1891 53.2453 65.3385 52.8933 65.6371 52.616C65.9465 52.328 66.3411 52.184 66.8211 52.184C67.2905 52.184 67.6745 52.328 67.9731 52.616C68.2825 52.8933 68.4371 53.2453 68.4371 53.672C68.4371 54.088 68.2825 54.44 67.9731 54.728C67.6745 55.0053 67.2905 55.144 66.8211 55.144ZM68.1811 56.072V65H65.4451V56.072H68.1811ZM74.9305 55.144C74.4505 55.144 74.0558 55.0053 73.7465 54.728C73.4478 54.44 73.2985 54.088 73.2985 53.672C73.2985 53.2453 73.4478 52.8933 73.7465 52.616C74.0558 52.328 74.4505 52.184 74.9305 52.184C75.3998 52.184 75.7838 52.328 76.0825 52.616C76.3918 52.8933 76.5465 53.2453 76.5465 53.672C76.5465 54.088 76.3918 54.44 76.0825 54.728C75.7838 55.0053 75.3998 55.144 74.9305 55.144ZM76.2905 56.072V65H73.5545V56.072H76.2905ZM83.7133 55.976C84.7586 55.976 85.5906 56.3173 86.2093 57C86.8386 57.672 87.1533 58.6 87.1533 59.784V65H84.4333V60.152C84.4333 59.5547 84.2786 59.0907 83.9693 58.76C83.6599 58.4293 83.2439 58.264 82.7213 58.264C82.1986 58.264 81.7826 58.4293 81.4733 58.76C81.1639 59.0907 81.0093 59.5547 81.0093 60.152V65H78.2733V56.072H81.0093V57.256C81.2866 56.8613 81.6599 56.552 82.1293 56.328C82.5986 56.0933 83.1266 55.976 83.7133 55.976ZM90.4305 55.144C89.9505 55.144 89.5558 55.0053 89.2465 54.728C88.9478 54.44 88.7985 54.088 88.7985 53.672C88.7985 53.2453 88.9478 52.8933 89.2465 52.616C89.5558 52.328 89.9505 52.184 90.4305 52.184C90.8998 52.184 91.2838 52.328 91.5825 52.616C91.8918 52.8933 92.0465 53.2453 92.0465 53.672C92.0465 54.088 91.8918 54.44 91.5825 54.728C91.2838 55.0053 90.8998 55.144 90.4305 55.144ZM91.7905 56.072V65H89.0545V56.072H91.7905ZM97.0533 53.144C98.1946 53.144 99.1066 53.4427 99.7893 54.04C100.483 54.6373 100.829 55.48 100.829 56.568C100.829 57.5707 100.499 58.3547 99.8373 58.92C99.1866 59.4747 98.3226 59.7573 97.2453 59.768L97.1653 60.968H94.7653L94.6853 57.992H95.6453C96.4666 57.992 97.0906 57.8907 97.5173 57.688C97.9546 57.4853 98.1733 57.1173 98.1733 56.584C98.1733 56.2107 98.0719 55.9173 97.8693 55.704C97.6666 55.4907 97.3839 55.384 97.0213 55.384C96.6373 55.384 96.3386 55.496 96.1253 55.72C95.9119 55.9333 95.8053 56.2267 95.8053 56.6H93.2293C93.2079 55.9493 93.3413 55.3627 93.6293 54.84C93.9279 54.3173 94.3653 53.9067 94.9413 53.608C95.5279 53.2987 96.2319 53.144 97.0533 53.144ZM95.9973 65.128C95.5173 65.128 95.1226 64.9893 94.8133 64.712C94.5146 64.424 94.3653 64.072 94.3653 63.656C94.3653 63.2293 94.5146 62.872 94.8133 62.584C95.1226 62.296 95.5173 62.152 95.9973 62.152C96.4666 62.152 96.8506 62.296 97.1493 62.584C97.4586 62.872 97.6133 63.2293 97.6133 63.656C97.6133 64.072 97.4586 64.424 97.1493 64.712C96.8506 64.9893 96.4666 65.128 95.9973 65.128Z" fill="white"/>
</svg>
